PathFileType	4	(X/Y/Z)	C:\Users\dbl\Desktop\20210112\20210112\bx_n_0_901.trc
DataRate	CameraRate	NumFrames	NumMarkers	Units	OrigDataRate	OrigDataStartFrame	OrigNumFrames
50.00	50.00	       5	43	mm	50.00	186	       370
Frame#	Time	Top.Head			R.Acromium			L.Acromium			Sternum			R.ASIS			L.ASIS			V.Sacral			R.Thigh.Upper			R.Thigh.Front			R.Thigh.Rear			R.Knee.Lat			R.Knee.Med			R.Shank.Upper			R.Shank.Front			R.Shank.Rear			R.Ankle.Lat			R.Midfoot.Lat			R.Toe.Lat			R.Toe.Tip			R.Toe.Med			R.Ankle.Med			R.Midfoot.Sup			R.Heel			L.Thigh.Upper			L.Thigh.Front			L.Thigh.Rear			L.Knee.Lat			L.Knee.Med			L.Shank.Upper			L.Shank.Front			L.Shank.Rear			L.Ankle.Lat			L.Midfoot.Lat			L.Toe.Lat			L.Toe.Tip			L.Toe.Med			L.Ankle.Med			L.Midfoot.Sup			L.Heel			origin1 front left			origin2 front right			origin 3 back right			origin 4 back leftt			
		X1	Y1	Z1	X2	Y2	Z2	X3	Y3	Z3	X4	Y4	Z4	X5	Y5	Z5	X6	Y6	Z6	X7	Y7	Z7	X8	Y8	Z8	X9	Y9	Z9	X10	Y10	Z10	X11	Y11	Z11	X12	Y12	Z12	X13	Y13	Z13	X14	Y14	Z14	X15	Y15	Z15	X16	Y16	Z16	X17	Y17	Z17	X18	Y18	Z18	X19	Y19	Z19	X20	Y20	Z20	X21	Y21	Z21	X22	Y22	Z22	X23	Y23	Z23	X24	Y24	Z24	X25	Y25	Z25	X26	Y26	Z26	X27	Y27	Z27	X28	Y28	Z28	X29	Y29	Z29	X30	Y30	Z30	X31	Y31	Z31	X32	Y32	Z32	X33	Y33	Z33	X34	Y34	Z34	X35	Y35	Z35	X36	Y36	Z36	X37	Y37	Z37	X38	Y38	Z38	X39	Y39	Z39	X40	Y40	Z40	X41	Y41	Z41	X42	Y42	Z42	X43	Y43	Z43	

186	3.700	-21.56653	116.56327	1076.85815	-310.96341	-79.65299	1006.88062	-322.49847	271.26022	1025.34009	-437.56439	77.48511	880.67676	-765.98199	-39.46700	951.23346	-730.17023	200.87192	951.60596	-862.58807	85.09353	1116.77979	-812.09595	-80.66234	864.80365	-724.66101	-10.25037	802.55414	-808.25067	-72.61356	747.98944	-794.37286	-38.21445	610.16962	-776.70441	72.37550	568.84155	-793.14795	-35.21867	563.63916	-736.18164	15.21038	525.37396	-818.68494	-49.32769	478.44122	-762.79645	-22.75738	204.81512	-647.11053	-66.62039	162.02000	-605.69305	-71.90407	156.78084	-549.54340	-21.43291	162.05951	-600.89276	30.59668	166.13695	-675.71307	52.08601	161.23230	-727.25812	67.10913	219.63214	-794.81519	35.37928	174.00209	-823.62701	284.40189	872.33417	-719.31891	210.79909	794.13196	-803.48010	275.91705	735.79877	-820.01990	254.47563	628.36243	-772.59601	137.36833	572.17291	-797.91473	244.54999	569.75757	-741.82422	197.28113	537.78900	-821.34705	259.55688	491.41187	-766.85059	229.58731	204.36635	-651.03198	289.24463	158.85764	-613.98517	294.60983	160.31192	-553.46606	240.44118	164.55936	-590.28278	205.20190	172.13231	-721.64886	151.42152	219.81743	-676.39630	168.02072	160.29755	-796.76526	183.13864	182.68718	-528.11914	303.84070	146.40982	-517.85382	-72.89287	143.13512	-875.92651	-78.72913	141.27867	-882.56281	296.03320	144.64638	
187	3.720	-21.43823	116.91261	1075.74829	-311.04443	-79.35884	1006.28418	-322.37689	271.70624	1024.81628	-437.60083	77.30719	879.03577	-766.67786	-39.20213	950.39545	-730.34521	200.74625	950.71893	-862.44763	85.52872	1116.81116	-811.93518	-80.39687	864.85645	-724.48682	-9.90143	802.63330	-808.15222	-72.19228	748.02374	-794.25323	-37.84251	610.22870	-776.59308	72.59254	568.83038	-793.00287	-35.04960	563.75439	-735.98260	15.48840	525.51215	-818.64563	-49.13238	478.57660	-762.72565	-22.62025	204.85229	-647.11646	-66.57463	162.03499	-605.69995	-71.87878	156.77463	-549.54761	-21.43608	162.04604	-600.86029	30.68736	166.05875	-675.67676	52.09439	161.22054	-727.15930	67.25117	219.64337	-794.84802	35.50410	174.05205	-823.63470	284.60364	872.26624	-719.31061	211.10176	793.99078	-803.58569	276.29413	735.73578	-820.15649	254.79836	628.34039	-772.73706	137.64142	572.11621	-798.06287	244.82573	569.70886	-741.93140	197.51381	537.75385	-821.43243	259.78760	491.24316	-766.82288	229.71648	204.31581	-651.02545	289.26434	158.82375	-613.98517	294.62637	160.29912	-553.44330	240.43474	164.53635	-590.26355	205.16736	172.13881	-721.65948	151.52809	219.80547	-676.37500	167.97676	160.36542	-796.77295	183.20247	182.66136	-528.13013	303.85577	146.39856	-517.86957	-72.91470	143.15193	-875.92395	-78.74454	141.28757	-882.57220	296.03290	144.63785	
188	3.740	-21.32843	117.30850	1074.88013	-311.13589	-79.09338	1005.89893	-322.21246	272.07916	1024.49060	-437.66400	77.13806	877.55670	-767.33521	-38.91806	949.58807	-730.49591	200.63655	949.87537	-862.30664	85.92348	1116.86768	-811.69330	-80.11839	864.98242	-724.32947	-9.58379	802.76123	-808.01678	-71.72162	748.06464	-794.05902	-37.47883	610.29144	-776.47919	72.79038	568.83392	-792.79041	-34.86011	563.87506	-735.76965	15.74087	525.67102	-818.61292	-48.88527	478.67596	-762.64594	-22.51526	204.93015	-647.11292	-66.49162	162.06239	-605.69647	-71.83170	156.75873	-549.55304	-21.44046	162.04749	-600.87195	30.78573	165.97418	-675.61957	52.11363	161.22729	-727.12610	67.38765	219.64203	-794.85211	35.58854	174.06459	-823.68146	284.82574	872.19586	-719.34155	211.46909	793.89832	-803.71698	276.78473	735.70404	-820.32410	255.16949	628.34399	-772.81818	137.87975	572.10956	-798.16638	245.06355	569.70184	-742.00366	197.76352	537.76129	-821.49481	259.99225	491.11578	-766.82361	229.80740	204.26335	-651.02026	289.28751	158.77988	-613.97815	294.65521	160.27676	-553.41455	240.43159	164.52205	-590.22675	205.12430	172.14896	-721.67181	151.61667	219.87300	-676.32953	167.93593	160.43848	-796.77234	183.25505	182.62517	-528.14301	303.88153	146.37424	-517.87482	-72.94324	143.16936	-875.91809	-78.75944	141.29039	-882.57269	296.04398	144.64619	
189	3.760	-21.24652	117.70615	1074.24927	-311.16891	-78.82852	1005.74927	-322.01236	272.40259	1024.35913	-437.75366	76.97797	876.23901	-767.95422	-38.61541	948.81201	-730.62292	200.54286	949.07581	-862.20361	86.26022	1116.92712	-811.43079	-79.79498	865.13538	-724.24542	-9.27258	802.85327	-807.86633	-71.33331	748.10913	-793.81934	-37.19060	610.32996	-776.37415	72.98289	568.84680	-792.54962	-34.65698	564.01575	-735.59064	15.95793	525.78284	-818.58679	-48.61883	478.72339	-762.57697	-22.45704	205.02621	-647.08014	-66.39112	162.11517	-605.67865	-71.77889	156.74117	-549.54913	-21.43482	162.06253	-600.90057	30.85206	165.92064	-675.55853	52.14573	161.21593	-727.12891	67.50234	219.62196	-794.80005	35.59156	174.02979	-823.78918	285.11755	872.11395	-719.40137	211.85599	793.84399	-803.80957	277.29721	735.70221	-820.50287	255.53712	628.34302	-772.84186	138.10802	572.11987	-798.18622	245.26779	569.73340	-742.03009	198.02655	537.82758	-821.51129	260.18820	491.08090	-766.84802	229.85309	204.22260	-651.02850	289.32748	158.72044	-613.97754	294.69702	160.23537	-553.38989	240.43236	164.52332	-590.18079	205.08882	172.16063	-721.69519	151.69597	219.95396	-676.28528	167.92622	160.50404	-796.75665	183.31044	182.57921	-528.16394	303.90405	146.35254	-517.87317	-72.96825	143.18263	-875.91394	-78.76685	141.28467	-882.57220	296.06723	144.66701	
190	3.780	-21.20459	118.08650	1073.85400	-311.12579	-78.52523	1005.79303	-321.83673	272.69907	1024.38818	-437.86951	76.82718	875.08185	-768.53503	-38.29478	948.06781	-730.72693	200.46521	948.32074	-862.15161	86.52351	1116.97205	-811.22089	-79.44235	865.27600	-724.23334	-8.94608	802.87433	-807.71631	-71.08501	748.16534	-793.60901	-37.00404	610.33972	-776.30145	73.17637	568.84998	-792.35150	-34.45887	564.16504	-735.46399	16.14498	525.84131	-818.55530	-48.36826	478.74084	-762.52570	-22.43502	205.11165	-647.02887	-66.30087	162.18527	-605.64600	-71.73930	156.73643	-549.53455	-21.40258	162.08301	-600.91815	30.87750	165.90778	-675.51465	52.17023	161.16435	-727.13928	67.58286	219.59402	-794.71759	35.55012	173.98508	-823.92676	285.43073	872.02026	-719.45990	212.21898	793.84674	-803.84290	277.68884	735.70996	-820.68085	255.85025	628.33502	-772.80151	138.34564	572.11005	-798.13007	245.45375	569.78680	-742.00671	198.29327	537.94336	-821.47705	260.37814	491.10907	-766.86206	229.87450	204.20738	-651.05066	289.38272	158.64340	-613.97986	294.74951	160.17198	-553.36700	240.43814	164.53947	-590.14594	205.07120	172.16940	-721.71631	151.76762	219.99141	-676.28308	167.97589	160.52727	-796.72961	183.36629	182.53320	-528.18091	303.91522	146.35237	-517.87421	-72.97700	143.18373	-875.90289	-78.75240	141.25868	-882.57263	296.08521	144.67937	
